# xmcd
#
# Track frame offsets: 
#        150
#        14970
#        29163
#        49584
#        64531
#        80891
#        94212
#        110286
#        128237
#        149879
#        165841
#        186399
#
# Disc length: 3046 seconds
#
# Revision: 0
# Processed by: cddbd v1.5.2PL0 Copyright (c) Steve Scherf et al.
# Submitted via: ExactAudioCopy v0.95b3
#
DISCID=b20be40c
DTITLE=Amy Macdonald - A Curious Thing
DYEAR=2010
DGENRE=Country
TTITLE0=Don't Tell Me That It's Over
TTITLE1=Spark
TTITLE2=No Roots
TTITLE3=Love Love
TTITLE4=An Ordinary Life
TTITLE5=Give It All Up
TTITLE6=My Only One
TTITLE7=This Pretty Face
TTITLE8=Troubled Soul
TTITLE9=Next Big Thing
TTITLE10=Your Time Will Come
TTITLE11=What Happiness Means To Me
EXTD=
EXTT0=
EXTT1=
EXTT2=
EXTT3=
EXTT4=
EXTT5=
EXTT6=
EXTT7=
EXTT8=
EXTT9=
EXTT10=
EXTT11=
PLAYORDER=
